<svg id="圖層_1" data-name="圖層 1" xmlns="http://www.w3.org/2000/svg" xmlns:xlink="http://www.w3.org/1999/xlink" viewBox="0 0 29.56 40"><defs><style>.cls-1{fill:none;}.cls-2{clip-path:url(#clip-path);}.cls-3{fill:#445727;}.cls-4{fill:#657f33;}.cls-5{fill:#81a643;}.cls-6{fill:#35441c;}</style><clipPath id="clip-path" transform="translate(0 0)"><rect class="cls-1" width="30" height="40"/></clipPath></defs><g class="cls-2"><path class="cls-3" d="M7.41,6.47S10.23,0,7.41,0C4.82,0,6.17,6.47,6.17,6.47" transform="translate(0 0)"/><path class="cls-3" d="M5.05,7.59S2.29,1.18.34,3.24C-1.42,5.12,4.17,8.47,4.17,8.47" transform="translate(0 0)"/><path class="cls-4" d="M11.64,17.88S12.28,5.53,6.58,5.53-1,16.94,9.11,20.7Z" transform="translate(0 0)"/><path class="cls-4" d="M18.81,28.06s8.3-7.65,9.83-3.89-.71,10.06-9.83,6.42" transform="translate(0 0)"/><path class="cls-5" d="M9.76,40S.46,20.12,13.87,15s8.77,19.12.48,25Z" transform="translate(0 0)"/><path class="cls-4" d="M10.87,35.35c.12-.06,0-.17-.11-.12s-.18.18-.3.3c-.11-.12-.17-.24-.29-.3s-.18.06-.12.12a1.59,1.59,0,0,1,.3.36,1.1,1.1,0,0,0-.24.35c-.06.12.12.17.12.06a.64.64,0,0,1,.23-.3c.06.06.12.18.24.3s.17,0,.12-.06a1.31,1.31,0,0,0-.24-.3A.62.62,0,0,1,10.87,35.35Z" transform="translate(0 0)"/><path class="cls-4" d="M18.29,31.47c.12-.06-.06-.17-.12-.11s-.18.17-.29.29c-.12-.12-.18-.24-.3-.29s-.17.05-.11.11a1.83,1.83,0,0,1,.29.36,1.1,1.1,0,0,0-.24.35c-.05.12.12.18.12.06a.6.6,0,0,1,.24-.3c.06.06.11.18.23.3s.18,0,.12-.06a1.05,1.05,0,0,0-.24-.29A1.26,1.26,0,0,1,18.29,31.47Z" transform="translate(0 0)"/><path class="cls-4" d="M13.93,32c.12-.06-.06-.18-.11-.12s-.18.18-.3.29c-.12-.11-.17-.23-.29-.29s-.18.06-.12.12a1.15,1.15,0,0,1,.29.35,1.61,1.61,0,0,0-.23.35c-.06.12.12.18.12.06a.56.56,0,0,1,.23-.29c.06.06.12.17.24.29s.17,0,.11-.06a1.18,1.18,0,0,0-.23-.29A1.23,1.23,0,0,1,13.93,32Z" transform="translate(0 0)"/><path class="cls-4" d="M17.52,36.88c.12-.06-.06-.18-.12-.12s-.17.18-.29.3c-.12-.12-.18-.24-.3-.3s-.17.06-.11.12a2.14,2.14,0,0,1,.29.35,1.26,1.26,0,0,0-.24.36c-.05.11.12.17.12,0a.62.62,0,0,1,.24-.29c.06.06.12.18.23.29s.18,0,.12,0a1.65,1.65,0,0,0-.23-.3C17.34,37.06,17.4,36.94,17.52,36.88Z" transform="translate(0 0)"/><path class="cls-4" d="M19.29,21c.12-.06-.06-.18-.12-.12s-.18.18-.29.3c-.12-.12-.18-.24-.3-.3s-.17.06-.11.12a2.14,2.14,0,0,1,.29.35,1.26,1.26,0,0,0-.24.36c-.05.11.12.17.12.06a.6.6,0,0,1,.24-.3c.06.06.11.18.23.3s.18,0,.12-.06a1.31,1.31,0,0,0-.24-.3A1.56,1.56,0,0,1,19.29,21Z" transform="translate(0 0)"/><path class="cls-4" d="M10.34,22.53c.12-.06-.06-.18-.11-.12s-.18.18-.3.29c-.12-.11-.17-.23-.29-.29s-.18.06-.12.12a1.28,1.28,0,0,1,.29.35,1.61,1.61,0,0,0-.23.35c-.06.12.12.18.12.06A.6.6,0,0,1,9.93,23a3.22,3.22,0,0,0,.24.29c.06.06.17,0,.11-.06a1.18,1.18,0,0,0-.23-.29A1.35,1.35,0,0,1,10.34,22.53Z" transform="translate(0 0)"/><path class="cls-4" d="M7.28,23.06c.12-.06,0-.18-.11-.12s-.18.18-.3.3c-.11-.12-.17-.24-.29-.3s-.18.06-.12.12a1.56,1.56,0,0,1,.3.35,1.26,1.26,0,0,0-.24.36c-.06.11.12.17.12.05a.66.66,0,0,1,.23-.29,3.22,3.22,0,0,0,.24.29c.06.06.17,0,.12-.05a1.31,1.31,0,0,0-.24-.3C7.11,23.24,7.17,23.12,7.28,23.06Z" transform="translate(0 0)"/><path class="cls-4" d="M13.41,18.94c.11-.06-.06-.18-.12-.12s-.18.18-.3.29c-.11-.11-.17-.23-.29-.29s-.18.06-.12.12a1.56,1.56,0,0,1,.3.35,1.37,1.37,0,0,0-.24.35c-.06.12.12.18.12.06a.66.66,0,0,1,.23-.29,3.22,3.22,0,0,0,.24.29c.06.06.18,0,.12-.06a1.48,1.48,0,0,0-.24-.29C13.23,19.11,13.35,19.06,13.41,18.94Z" transform="translate(0 0)"/><path class="cls-6" d="M8.58,15.12c.12-.06-.06-.18-.12-.12s-.17.18-.29.29c-.12-.11-.18-.23-.29-.29s-.18.06-.12.12a1.49,1.49,0,0,1,.29.35,1.31,1.31,0,0,0-.23.35c-.06.12.11.18.11.06a.62.62,0,0,1,.24-.29,3.22,3.22,0,0,0,.24.29c.05.06.17,0,.11-.06a1.47,1.47,0,0,0-.23-.29A.56.56,0,0,1,8.58,15.12Z" transform="translate(0 0)"/><path class="cls-6" d="M9.34,11.29c.12-.06-.06-.17-.11-.11s-.18.17-.3.29c-.12-.12-.17-.24-.29-.29s-.18.05-.12.11a1.31,1.31,0,0,1,.29.36,1.24,1.24,0,0,0-.23.35c-.06.12.12.18.12.06a.58.58,0,0,1,.23-.3c.06.06.12.18.24.3s.17,0,.11-.06a.89.89,0,0,0-.23-.29A.62.62,0,0,1,9.34,11.29Z" transform="translate(0 0)"/><path class="cls-6" d="M12.17,13.35c.12-.06-.06-.17-.12-.12s-.18.18-.29.3c-.12-.12-.18-.24-.3-.3s-.17.06-.12.12a1.59,1.59,0,0,1,.3.36,1.1,1.1,0,0,0-.24.35c-.06.12.12.17.12.06a.6.6,0,0,1,.24-.3,2.42,2.42,0,0,0,.23.3c.06.06.18,0,.12-.06a1.31,1.31,0,0,0-.24-.3A.59.59,0,0,1,12.17,13.35Z" transform="translate(0 0)"/><path class="cls-6" d="M24.41,27.65c.11-.06-.06-.18-.12-.12s-.18.17-.3.29c-.11-.12-.17-.23-.29-.29s-.18.06-.12.12a1.37,1.37,0,0,1,.3.35,1.22,1.22,0,0,0-.24.35c-.06.12.12.18.12.06a.57.57,0,0,1,.23-.29c.06.05.12.17.24.29s.18,0,.12-.06a1.23,1.23,0,0,0-.24-.29A2.91,2.91,0,0,1,24.41,27.65Z" transform="translate(0 0)"/><path class="cls-6" d="M27,24.82c.12-.06-.06-.18-.12-.12s-.18.18-.29.3c-.12-.12-.18-.24-.3-.3s-.17.06-.12.12a1.81,1.81,0,0,1,.3.35,1.26,1.26,0,0,0-.24.36c-.06.11.12.17.12.06a.6.6,0,0,1,.24-.3c.06.06.11.18.23.3s.18,0,.12-.06a1.31,1.31,0,0,0-.24-.3A1.31,1.31,0,0,1,27,24.82Z" transform="translate(0 0)"/><path class="cls-6" d="M27.52,28.41c.12-.05-.06-.17-.12-.11s-.17.17-.29.29c-.12-.12-.18-.23-.3-.29s-.17.06-.11.11a1.83,1.83,0,0,1,.29.36,1.22,1.22,0,0,0-.24.35c-.05.12.12.18.12.06a.54.54,0,0,1,.24-.29c.06.05.12.17.23.29s.18,0,.12-.06a1.54,1.54,0,0,0-.23-.29A.71.71,0,0,1,27.52,28.41Z" transform="translate(0 0)"/><path class="cls-6" d="M24.93,31.24c.12-.06-.06-.18-.12-.12s-.17.17-.29.29c-.12-.12-.18-.23-.3-.29s-.17.06-.11.12a1.54,1.54,0,0,1,.29.35,1.22,1.22,0,0,0-.24.35c-.05.12.12.18.12.06a.54.54,0,0,1,.24-.29c.06.05.12.17.23.29s.18,0,.12-.06a1.54,1.54,0,0,0-.23-.29C24.75,31.41,24.81,31.29,24.93,31.24Z" transform="translate(0 0)"/><path class="cls-6" d="M24.93,23.59c.12-.06-.06-.18-.12-.12s-.17.18-.29.29c-.12-.11-.18-.23-.3-.29s-.17.06-.11.12a1.54,1.54,0,0,1,.29.35,1.22,1.22,0,0,0-.24.35c-.05.12.12.18.12.06a.57.57,0,0,1,.24-.29c.06.06.12.17.23.29s.18,0,.12-.06a1.54,1.54,0,0,0-.23-.29C24.75,23.76,24.81,23.65,24.93,23.59Z" transform="translate(0 0)"/><path class="cls-6" d="M28.76,23.06c.12-.06-.06-.18-.12-.12s-.18.18-.29.3c-.12-.12-.18-.24-.3-.3s-.17.06-.12.12a1.56,1.56,0,0,1,.3.35,1.26,1.26,0,0,0-.24.36c-.06.11.12.17.12.05a.62.62,0,0,1,.24-.29,1.87,1.87,0,0,0,.23.29c.06.06.18,0,.12-.05a1.31,1.31,0,0,0-.24-.3A1.56,1.56,0,0,1,28.76,23.06Z" transform="translate(0 0)"/><path class="cls-6" d="M8.58,3.35c.12-.06-.06-.17-.12-.12s-.17.18-.29.3c-.12-.12-.18-.24-.29-.3s-.18.06-.12.12a1.53,1.53,0,0,1,.29.36,1.06,1.06,0,0,0-.23.35c-.06.12.11.17.11.06a.6.6,0,0,1,.24-.3c.06.06.12.18.24.3s.17,0,.11-.06a1.3,1.3,0,0,0-.23-.3A.59.59,0,0,1,8.58,3.35Z" transform="translate(0 0)"/><path class="cls-6" d="M7.52,1.06C7.64,1,7.46.88,7.4.94s-.17.18-.29.24C7,1.06,6.93.94,6.81.88S6.64.94,6.7,1A2.14,2.14,0,0,1,7,1.35a1.26,1.26,0,0,0-.24.36c0,.06.12.17.18.06a.6.6,0,0,1,.24-.3c.06.06.11.18.23.3s.18,0,.12-.06a1.31,1.31,0,0,0-.24-.3A1,1,0,0,1,7.52,1.06Z" transform="translate(0 0)"/><path class="cls-6" d="M6.29,2.82c.12-.06-.06-.18-.12-.12a.7.7,0,0,0-.29.3,1.59,1.59,0,0,1-.3-.36c-.12-.05-.17.06-.12.12a1.59,1.59,0,0,1,.3.36,1.1,1.1,0,0,0-.24.35c-.06.12.12.17.12.06a.6.6,0,0,1,.24-.3,1.33,1.33,0,0,1,.17.3c.06.06.18,0,.12-.06a1.65,1.65,0,0,0-.23-.3A1.93,1.93,0,0,1,6.29,2.82Z" transform="translate(0 0)"/><path class="cls-6" d="M3.46,3.88c.12-.06-.06-.17-.12-.11A.55.55,0,0,0,3.05,4c-.12-.12-.24-.18-.3-.29s-.17,0-.11.11.17.18.29.3c-.06.12-.18.23-.23.35s.11.18.17.12l.18-.35c.06,0,.12.17.23.29s.18,0,.12-.06-.17-.23-.23-.35A1.23,1.23,0,0,1,3.46,3.88Z" transform="translate(0 0)"/><path class="cls-6" d="M2.17,6.18c.12-.06-.06-.18-.12-.12s-.18.18-.29.29c-.12-.11-.18-.23-.3-.29s-.17.06-.12.12a1.37,1.37,0,0,1,.3.35,1.22,1.22,0,0,0-.24.35c-.06.12.12.18.12.06a.57.57,0,0,1,.24-.29A2.52,2.52,0,0,0,2,6.94c.06.06.18,0,.12-.06a1.23,1.23,0,0,0-.24-.29C2,6.35,2.05,6.24,2.17,6.18Z" transform="translate(0 0)"/><path class="cls-6" d="M.87,3.35C1,3.29.82,3.18.76,3.23s-.18.18-.3.24L.17,3.18c-.06-.06-.18,0-.12.11a1.81,1.81,0,0,0,.35.3A1,1,0,0,0,.17,4a.07.07,0,1,0,.12.06.58.58,0,0,1,.23-.3c.06.06.12.18.18.24s.17,0,.12-.06a.57.57,0,0,0-.24-.29C.7,3.53.76,3.41.87,3.35Z" transform="translate(0 0)"/><path class="cls-6" d="M29.52,26.36c.12-.06-.06-.18-.11-.12s-.18.18-.3.29c-.12-.11-.18-.23-.29-.29s-.18.06-.12.12a1.32,1.32,0,0,1,.29.35,1.4,1.4,0,0,0-.23.35c-.06.12.12.18.12.06a.51.51,0,0,1,.23-.29c.06.06.12.17.24.29s.17,0,.11-.06a1,1,0,0,0-.23-.29A3.09,3.09,0,0,1,29.52,26.36Z" transform="translate(0 0)"/><path class="cls-6" d="M10.34,7.41c.12-.06-.06-.18-.11-.12s-.18.18-.3.3c-.12-.12-.17-.24-.29-.3s-.18.06-.12.12a1.45,1.45,0,0,1,.29.35,1.45,1.45,0,0,0-.23.36c-.06.11.12.17.12.06a.58.58,0,0,1,.23-.3c.06.06.12.18.24.3s.17,0,.11-.06a1.07,1.07,0,0,0-.23-.3A1.5,1.5,0,0,1,10.34,7.41Z" transform="translate(0 0)"/><path class="cls-6" d="M5,10c.12-.06-.06-.18-.12-.12s-.17.18-.29.3c-.12-.12-.18-.24-.29-.3s-.18.06-.12.12a1.73,1.73,0,0,1,.29.35,1.21,1.21,0,0,0-.23.36c-.06.11.11.17.11.06a.6.6,0,0,1,.24-.3c.06,0,.18.12.24.18s.17,0,.11-.06a1.3,1.3,0,0,0-.23-.3A.74.74,0,0,1,5,10Z" transform="translate(0 0)"/><path class="cls-6" d="M2.7,13.35c.12-.06-.06-.17-.12-.12s-.18.18-.29.3c-.12-.12-.18-.24-.3-.3s-.17.06-.11.12a1.83,1.83,0,0,1,.29.36,1.1,1.1,0,0,0-.24.35c-.05.12.12.17.12.06a.6.6,0,0,1,.24-.3c.06.06.11.18.23.3s.18,0,.12-.06a1.31,1.31,0,0,0-.24-.3A.59.59,0,0,1,2.7,13.35Z" transform="translate(0 0)"/><path class="cls-6" d="M4.46,17.18c.12-.06-.06-.18-.12-.12s-.17.17-.29.29c-.12-.12-.18-.23-.3-.29s-.17,0-.11.06a1.54,1.54,0,0,1,.29.35,1.11,1.11,0,0,0-.23.35c-.06.12.11.18.11.06a.57.57,0,0,1,.24-.29.71.71,0,0,1,.23.23c.06.06.18,0,.12-.06a1.61,1.61,0,0,0-.23-.35C4.28,17.35,4.34,17.23,4.46,17.18Z" transform="translate(0 0)"/><path class="cls-6" d="M7.28,7.18c.12-.06,0-.18-.11-.12s-.18.18-.3.29c-.11-.11-.17-.23-.29-.29s-.18.06-.12.12a1.37,1.37,0,0,1,.3.35,1.22,1.22,0,0,0-.24.35c-.06.12.12.18.12.06a.61.61,0,0,1,.23-.29c.06.06.12.17.24.29s.17,0,.12-.06A1.23,1.23,0,0,0,7,7.59,1.23,1.23,0,0,1,7.28,7.18Z" transform="translate(0 0)"/><path class="cls-4" d="M10.11,28.7c.12-.05-.06-.17-.12-.11s-.18.17-.29.29c-.12-.12-.18-.23-.3-.29s-.17.06-.11.11a1.83,1.83,0,0,1,.29.36,1.1,1.1,0,0,0-.24.35c-.05,0,.12.06.18,0a.54.54,0,0,1,.24-.29c.05.05.11.17.23.29s.18,0,.12-.06a1.23,1.23,0,0,0-.24-.29A.41.41,0,0,1,10.11,28.7Z" transform="translate(0 0)"/><path class="cls-4" d="M7.82,32c.11-.06-.06-.18-.12-.12s-.18.18-.3.29c-.11-.11-.17-.23-.29-.29s-.18.06-.12.12a1.37,1.37,0,0,1,.3.35,1.37,1.37,0,0,0-.24.35c-.06.12.12.18.12.06a.61.61,0,0,1,.23-.29c.06.06.12.17.24.29s.18,0,.12-.06a1.48,1.48,0,0,0-.24-.29A.7.7,0,0,1,7.82,32Z" transform="translate(0 0)"/><path class="cls-4" d="M18.29,26.36c.12-.06-.06-.18-.12-.12s-.18.18-.29.29c-.12-.11-.18-.23-.3-.29s-.17.06-.11.12a1.54,1.54,0,0,1,.29.35,1.22,1.22,0,0,0-.24.35c-.05.12.12.18.12.06a.57.57,0,0,1,.24-.29c.06.06.11.17.23.29s.18,0,.12-.06a1.23,1.23,0,0,0-.24-.29A1.11,1.11,0,0,1,18.29,26.36Z" transform="translate(0 0)"/><path class="cls-4" d="M22.64,22.53c.11-.06-.06-.18-.12-.12s-.18.18-.3.29c-.11-.11-.17-.23-.29-.29s-.18.06-.12.12a1.56,1.56,0,0,1,.3.35,1.37,1.37,0,0,0-.24.35c-.06.12.12.18.12.06a.66.66,0,0,1,.23-.29,3.22,3.22,0,0,0,.24.29c.06.06.18,0,.12-.06a1.48,1.48,0,0,0-.24-.29A1.2,1.2,0,0,1,22.64,22.53Z" transform="translate(0 0)"/><path class="cls-4" d="M21.87,17.18c.12-.06-.06-.18-.12-.12s-.17.18-.29.29c-.12-.11-.18-.23-.3-.29s-.17.06-.11.12a1.54,1.54,0,0,1,.29.35,1,1,0,0,0-.23.35c-.06.12.11.18.11.06a.57.57,0,0,1,.24-.29c.06.06.12.17.23.29s.18,0,.12-.06a1.22,1.22,0,0,0-.23-.29C21.69,17.35,21.75,17.24,21.87,17.18Z" transform="translate(0 0)"/><path class="cls-4" d="M18.82,13.82c.11-.06-.06-.18-.12-.12s-.18.18-.3.3c-.11-.12-.17-.24-.29-.3s-.18.06-.12.12a1.81,1.81,0,0,1,.3.35,1.26,1.26,0,0,0-.24.36c-.06.11.12.17.12.06a.64.64,0,0,1,.23-.3c.06.06.12.18.24.3s.18,0,.12-.06a1.31,1.31,0,0,0-.24-.3A.78.78,0,0,1,18.82,13.82Z" transform="translate(0 0)"/><path class="cls-4" d="M13.41,14.88c.11-.06-.06-.17-.12-.11s-.18.17-.3.29c-.11-.12-.17-.24-.29-.29s-.18.05-.12.11a1.59,1.59,0,0,1,.3.36,1.1,1.1,0,0,0-.24.35c-.06.12.12.18.12.06a.64.64,0,0,1,.23-.3c.06.06.12.18.24.3s.18,0,.12-.06a1.05,1.05,0,0,0-.24-.29A1.49,1.49,0,0,1,13.41,14.88Z" transform="translate(0 0)"/><path class="cls-4" d="M21.64,28.41c.11-.05-.06-.17-.12-.11s-.18.17-.3.29c-.11-.12-.17-.23-.29-.29s-.18.06-.12.11a1.59,1.59,0,0,1,.3.36,1.22,1.22,0,0,0-.24.35c-.06.12.12.18.12.06a.57.57,0,0,1,.23-.29c.06.05.12.17.24.29s.18,0,.12-.06a1.23,1.23,0,0,0-.24-.29A.77.77,0,0,1,21.64,28.41Z" transform="translate(0 0)"/><path class="cls-4" d="M14.46,24.35c.12-.06-.06-.17-.12-.12s-.17.18-.29.3c-.12-.12-.18-.24-.3-.3s-.17.06-.11.12a1.83,1.83,0,0,1,.29.36.92.92,0,0,0-.23.35c-.06.12.11.17.11.06a.6.6,0,0,1,.24-.3c.06.06.12.18.23.3s.18,0,.12-.06a1.3,1.3,0,0,0-.23-.3A.59.59,0,0,1,14.46,24.35Z" transform="translate(0 0)"/></g></svg>