<svg width="24" height="24" viewBox="0 0 24 24" fill="none" xmlns="http://www.w3.org/2000/svg">
<path fill-rule="evenodd" clip-rule="evenodd" d="M20.4871 20.4853C18.2367 22.7357 15.1844 24 12.0018 24C8.81922 24 5.76697 22.7357 3.51653 20.4853C1.26609 18.2348 0.00181278 15.1826 0.00181287 12C0.00181278 8.8174 1.26609 5.76516 3.51653 3.51472C5.76697 1.26428 8.81922 -6.85076e-07 12.0018 -7.69369e-07C15.1844 4.10743e-07 18.2367 1.26428 20.4871 3.51472C22.7375 5.76516 24.0018 8.8174 24.0018 12C24.0018 15.1826 22.7375 18.2348 20.4871 20.4853ZM16.2445 7.75736C15.7758 7.28873 15.016 7.28873 14.5474 7.75736L12.0018 10.3029L9.45623 7.75736C8.9876 7.28873 8.2278 7.28873 7.75917 7.75736C7.29054 8.22599 7.29054 8.98579 7.75917 9.45442L10.3048 12L7.75917 14.5456C7.29054 15.0142 7.29054 15.774 7.75917 16.2426C8.2278 16.7113 8.9876 16.7113 9.45623 16.2426L12.0018 13.6971L14.5474 16.2426C15.016 16.7113 15.7758 16.7113 16.2445 16.2426C16.7131 15.774 16.7131 15.0142 16.2445 14.5456L13.6989 12L16.2445 9.45442C16.7131 8.98579 16.7131 8.22599 16.2445 7.75736Z" fill="#FFE3E3"/>
</svg>
